<?xml version="1.0" encoding="utf-8"?>
<svg version="1.1" xmlns:xlink="http://www.w3.org/1999/xlink" width="132px" height="92px" xmlns="http://www.w3.org/2000/svg">
  <g transform="matrix(1 0 0 1 -331 -256 )">
    <path d="M 52.009375 41.8257211538462  C 55.8822916666667 38.7111378205128  60.5458333333333 37.1538461538461  66 37.1538461538462  C 71.4541666666667 37.1538461538461  76.1177083333333 38.7111378205128  79.990625 41.8257211538462  C 83.8635416666667 44.9403044871795  85.8 48.6907051282051  85.8 53.0769230769231  C 85.8 57.463141025641  83.8635416666667 61.2135416666667  79.990625 64.328125  C 76.1177083333333 67.4427083333333  71.4541666666667 69  66 69  C 60.5458333333333 69  55.8822916666667 67.4427083333333  52.009375 64.328125  C 48.1364583333333 61.2135416666667  46.2 57.463141025641  46.2 53.0769230769231  C 46.2 48.6907051282051  48.1364583333333 44.9403044871795  52.009375 41.8257211538462  Z M 99 15  L 114.4 15  C 119.258333333333 14.1538461538462  123.40625 15.5360576923077  126.84375 18.3004807692308  C 130.28125 21.0649038461538  132 24.400641025641  132 28.3076923076923  L 132 77.8461538461538  C 132 81.7532051282051  130.28125 85.0889423076923  126.84375 87.8533653846154  C 123.40625 90.6177884615385  119.258333333333 92  114.4 92  L 17.6 92  C 12.7416666666667 92  8.59375 90.6177884615385  5.15625 87.8533653846154  C 1.71875 85.0889423076923  0 81.7532051282051  0 77.8461538461538  L 0 28.3076923076923  C 0 24.400641025641  1.71875 21.0649038461538  5.15625 18.3004807692308  C 8.59375 15.5360576923077  12.7416666666667 14.1538461538462  17.6 15  L 33 15  L 36.50625 6.63461538461538  C 37.3770833333333 4.82852564102564  38.9697916666667 3.27123397435897  41.284375 1.96274038461538  C 43.5989583333333 0.654246794871804  45.9708333333333 0  48.4 0  L 83.6 0  C 86.0291666666667 0  88.4010416666667 0.654246794871804  90.715625 1.96274038461538  C 93.0302083333333 3.27123397435897  94.6229166666667 4.82852564102564  95.49375 6.63461538461538  L 99 15  Z M 44.240625 70.5757211538462  C 50.2677083333333 75.4226762820513  57.5208333333333 77.8461538461538  66 77.8461538461538  C 74.4791666666667 77.8461538461538  81.7322916666667 75.4226762820513  87.759375 70.5757211538462  C 93.7864583333333 65.728766025641  96.8 59.8958333333333  96.8 53.0769230769231  C 96.8 46.2580128205128  93.7864583333333 40.4250801282051  87.759375 35.578125  C 81.7322916666667 30.7311698717949  74.4791666666667 28.3076923076923  66 28.3076923076923  C 57.5208333333333 28.3076923076923  50.2677083333333 30.7311698717949  44.240625 35.578125  C 38.2135416666667 40.4250801282051  35.2 46.2580128205128  35.2 53.0769230769231  C 35.2 59.8958333333333  38.2135416666667 65.728766025641  44.240625 70.5757211538462  Z " fill-rule="nonzero" fill="#000000" stroke="none" transform="matrix(1 0 0 1 331 256 )" />
  </g>
</svg>