<?xml version="1.0" encoding="utf-8"?>
<svg version="1.1" xmlns:xlink="http://www.w3.org/1999/xlink" width="222px" height="207px" xmlns="http://www.w3.org/2000/svg">
  <g transform="matrix(1 0 0 1 -836 -239 )">
    <path d="M 947 239  C 1009.16 239  1058 284.54  1058 342.5  C 1058 400.46  1009.16 446  947 446  C 884.84 446  836 400.46  836 342.5  C 836 284.54  884.84 239  947 239  Z " fill-rule="nonzero" fill="#ffffff" stroke="none" />
    <path d="M 947 239.5  C 1008.88 239.5  1057.5 284.82  1057.5 342.5  C 1057.5 400.18  1008.88 445.5  947 445.5  C 885.12 445.5  836.5 400.18  836.5 342.5  C 836.5 284.82  885.12 239.5  947 239.5  Z " stroke-width="1" stroke="#797979" fill="none" />
  </g>
</svg>