<?xml version="1.0" encoding="utf-8"?>
<svg version="1.1" xmlns:xlink="http://www.w3.org/1999/xlink" width="191px" height="123px" xmlns="http://www.w3.org/2000/svg">
  <g transform="matrix(1 0 0 1 -851 -286 )">
    <path d="M 851 286  L 1042 286  L 1042 409  L 851 409  L 851 286  " fill-rule="nonzero" fill="#cccccc" stroke="none" />
    <path d="M 860 295  L 1033 295  L 1033 400  L 860 400  L 860 295  " fill-rule="nonzero" fill="#ffffff" stroke="none" />
    <path d="M 959.545 322.9  C 954.379 322.9  950.32 318.841  950.32 313.675  C 950.32 308.509  954.379 304.45  959.545 304.45  C 964.711 304.45  968.77 308.509  968.77 313.675  C 968.77 318.841  964.711 322.9  959.545 322.9  " fill-rule="nonzero" fill="#cccccc" stroke="none" />
    <path d="M 863 397  L 863 342.55  L 904.75 317.8  L 963.2 358.747643979058  L 996.6 332.65  L 1030 358.747643979058  L 1030 397  L 863 397  " fill-rule="nonzero" fill="#169bd5" stroke="none" />
  </g>
</svg>