<?xml version="1.0" encoding="utf-8"?>
<svg version="1.1" xmlns:xlink="http://www.w3.org/1999/xlink" width="24px" height="35px" xmlns="http://www.w3.org/2000/svg">
  <g transform="matrix(1 0 0 1 -514 -483 )">
    <path d="M 14.71875 21.46484375  C 15.9831730769231 19.6208934294872  16.6153846153846 17.4018429487179  16.6153846153846 14.8076923076923  C 16.6153846153846 12.2135416666667  15.9831730769231 9.99449118589743  14.71875 8.15054086538462  C 13.4543269230769 6.30659054487179  11.9326923076923 5.38461538461539  10.1538461538462 5.38461538461539  C 8.375 5.38461538461539  6.85336538461539 6.30659054487179  5.58894230769231 8.15054086538462  C 4.32451923076923 9.99449118589743  3.69230769230769 12.2135416666667  3.69230769230769 14.8076923076923  C 3.69230769230769 17.4018429487179  4.32451923076923 19.6208934294872  5.58894230769231 21.46484375  C 6.85336538461539 23.3087940705128  8.375 24.2307692307692  10.1538461538462 24.2307692307692  C 11.9326923076923 24.2307692307692  13.4543269230769 23.3087940705128  14.71875 21.46484375  Z M 23.4663461538462 30.4146634615385  C 23.8221153846154 30.9334935897436  24 31.5645032051282  24 32.3076923076923  C 24 33.036858974359  23.8173076923077 33.6678685897436  23.4519230769231 34.2007211538462  C 23.0865384615385 34.7335737179487  22.6538461538462 35  22.1538461538462 35  C 21.6346153846154 35  21.2019230769231 34.7335737179487  20.8557692307692 34.2007211538462  L 15.9086538461538 27.0072115384615  C 14.1875 28.7459935897436  12.2692307692308 29.6153846153846  10.1538461538462 29.6153846153846  C 8.77884615384616 29.6153846153846  7.46394230769231 29.2262620192308  6.20913461538462 28.4480168269231  C 4.95432692307692 27.6697716346154  3.87259615384615 26.6180889423077  2.96394230769231 25.29296875  C 2.05528846153846 23.9678485576923  1.33413461538462 22.3903245192308  0.800480769230769 20.5603966346154  C 0.266826923076923 18.73046875  0 16.8129006410256  0 14.8076923076923  C 0 12.802483974359  0.266826923076923 10.8849158653846  0.800480769230769 9.05498798076923  C 1.33413461538462 7.22506009615384  2.05528846153846 5.64753605769231  2.96394230769231 4.32241586538462  C 3.87259615384615 2.99729567307692  4.95432692307692 1.94561298076923  6.20913461538462 1.16736778846154  C 7.46394230769231 0.389122596153845  8.77884615384616 0  10.1538461538462 0  C 11.5288461538462 0  12.84375 0.389122596153845  14.0985576923077 1.16736778846154  C 15.3533653846154 1.94561298076923  16.4350961538462 2.99729567307692  17.34375 4.32241586538462  C 18.2524038461538 5.64753605769231  18.9735576923077 7.22506009615384  19.5072115384615 9.05498798076923  C 20.0408653846154 10.8849158653846  20.3076923076923 12.802483974359  20.3076923076923 14.8076923076923  C 20.3076923076923 17.8926282051282  19.7115384615385 20.6901041666667  18.5192307692308 23.2001201923077  L 23.4663461538462 30.4146634615385  Z " fill-rule="nonzero" fill="#000000" stroke="none" transform="matrix(1 0 0 1 514 483 )" />
  </g>
</svg>